<svg width="151" height="144" viewBox="0 0 151 144" fill="none" xmlns="http://www.w3.org/2000/svg">
<g opacity="0.9" clip-path="url(#clip0_9_5426)">
<path d="M125.208 112.225C148.766 86.047 145.576 46.6512 118.084 24.2321C90.5917 1.81295 49.2074 4.8601 25.6497 31.0381C2.09187 57.2161 5.28147 96.6119 32.7738 119.031C60.2662 141.45 101.651 138.403 125.208 112.225Z" fill="#1D1E1D"/>
<path d="M144.243 59.6064C137.902 26.4576 106.123 2.58807 70.0571 5.24366C33.9907 7.89926 6.44121 36.1371 5.5106 69.8214L144.243 59.6064Z" fill="#42484A"/>
<path d="M6.63037 83.6487C12.972 116.798 44.7502 140.667 80.8067 138.012C116.863 135.357 144.432 107.118 145.353 73.4345L6.63037 83.6487Z" fill="#E7E7E9"/>
<path d="M77.126 92.546C89.2619 91.6524 98.3417 81.5627 97.4064 70.0099C96.471 58.4572 85.8747 49.8162 73.7388 50.7098C61.603 51.6034 52.5231 61.6931 53.4585 73.2458C54.3938 84.7986 64.9901 93.4395 77.126 92.546Z" fill="#1D1E1D"/>
<path d="M76.7564 87.9714C86.2383 87.2733 93.3324 79.3901 92.6016 70.3639C91.8708 61.3377 83.5918 54.5864 74.11 55.2846C64.6282 55.9827 57.5341 63.8659 58.2649 72.8921C58.9957 81.9183 67.2746 88.6696 76.7564 87.9714Z" fill="#F7F7F7"/>
<path d="M76.3261 82.658C82.7251 82.1868 87.5127 76.8667 87.0195 70.7752C86.5263 64.6836 80.9391 60.1274 74.5401 60.5986C68.141 61.0697 63.3534 66.3899 63.8466 72.4814C64.3398 78.5729 69.927 83.1291 76.3261 82.658Z" fill="#B8B5B5"/>
<path d="M76.2599 81.8446C82.1868 81.4082 86.6211 76.4806 86.1643 70.8386C85.7075 65.1966 80.5326 60.9766 74.6057 61.413C68.6789 61.8494 64.2446 66.7769 64.7014 72.4189C65.1582 78.061 70.3331 82.281 76.2599 81.8446Z" fill="#F7F7F7"/>
<path d="M65.486 46.4517L64.7808 37.7421L73.5075 37.0996L78.5367 45.4908L83.4995 45.1254L78.3335 36.509C82.0745 35.3395 84.6495 31.856 84.3337 27.955C83.9633 23.3803 79.7498 19.9356 74.9344 20.2901L58.9453 21.4674L59.118 23.6004L60.2897 38.0728L60.9949 46.7824L65.486 46.4517ZM63.7826 25.4121L75.2805 24.5654C77.6194 24.3932 79.6623 26.0591 79.8426 28.2856C80.0228 30.5122 78.2723 32.4574 75.9334 32.6296L64.4355 33.4762L63.7826 25.4121Z" fill="#C5312A"/>
</g>
<defs>
<clipPath id="clip0_9_5426">
<rect width="139.108" height="133.212" fill="white" transform="matrix(0.9973 -0.0734321 0.0806991 0.996738 0.695679 10.3508)"/>
</clipPath>
</defs>
</svg>
