<svg width="295" height="284" viewBox="0 0 295 284" fill="none" xmlns="http://www.w3.org/2000/svg">
<g filter="url(#filter0_d_9_5440)">
<path d="M143.523 256.021C211.919 256.021 267.365 203.166 267.365 137.966C267.365 72.7658 211.919 19.9106 143.523 19.9106C75.1271 19.9106 19.6812 72.7658 19.6812 137.966C19.6812 203.166 75.1271 256.021 143.523 256.021Z" fill="#1D1E1D"/>
<path d="M274.956 124.848C268.072 61.4436 211.86 12 143.523 12C75.1857 12 18.98 61.4436 12.0964 124.848H274.956Z" fill="#C5312A"/>
<path d="M12.0964 151.084C18.98 214.488 75.192 263.931 143.523 263.931C211.854 263.931 268.072 214.488 274.949 151.084H12.0964V151.084Z" fill="#E7E7E9"/>
<path d="M143.522 177.657C166.518 177.657 185.159 159.887 185.159 137.966C185.159 116.045 166.518 98.2751 143.522 98.2751C120.527 98.2751 101.886 116.045 101.886 137.966C101.886 159.887 120.527 177.657 143.522 177.657Z" fill="#1D1E1D"/>
<path d="M173.762 149.434C180.404 133.521 172.256 115.487 155.562 109.156C138.868 102.824 119.951 110.592 113.309 126.506C106.667 142.419 114.816 160.453 131.509 166.784C148.203 173.116 167.12 165.348 173.762 149.434Z" fill="#F7F7F7"/>
<path d="M143.525 158.887C155.645 158.887 165.47 149.52 165.47 137.967C165.47 126.413 155.645 117.046 143.525 117.046C131.404 117.046 121.579 126.413 121.579 137.967C121.579 149.52 131.404 158.887 143.525 158.887Z" fill="#B8B5B5"/>
<path d="M143.525 157.346C154.752 157.346 163.853 148.67 163.853 137.967C163.853 127.264 154.752 118.588 143.525 118.588C132.297 118.588 123.196 127.264 123.196 137.967C123.196 148.67 132.297 157.346 143.525 157.346Z" fill="#F7F7F7"/>
</g>
<defs>
<filter id="filter0_d_9_5440" x="0.0964355" y="0" width="294.859" height="283.931" filterUnits="userSpaceOnUse" color-interpolation-filters="sRGB">
<feFlood flood-opacity="0" result="BackgroundImageFix"/>
<feColorMatrix in="SourceAlpha" type="matrix" values="0 0 0 0 0 0 0 0 0 0 0 0 0 0 0 0 0 0 127 0" result="hardAlpha"/>
<feOffset dx="4" dy="4"/>
<feGaussianBlur stdDeviation="8"/>
<feColorMatrix type="matrix" values="0 0 0 0 0.00392157 0 0 0 0 0.109804 0 0 0 0 0.25098 0 0 0 0.2 0"/>
<feBlend mode="normal" in2="BackgroundImageFix" result="effect1_dropShadow_9_5440"/>
<feBlend mode="normal" in="SourceGraphic" in2="effect1_dropShadow_9_5440" result="shape"/>
</filter>
</defs>
</svg>
