<svg width="174" height="204" viewBox="0 0 174 204" fill="none" xmlns="http://www.w3.org/2000/svg">
<path fill-rule="evenodd" clip-rule="evenodd" d="M121.345 0.199728C121.493 -0.0121272 121.785 -0.0636138 121.997 0.0847293L136.482 10.2272C136.694 10.3755 136.745 10.6675 136.597 10.8793L116.436 39.6714C126.237 42.8026 132.915 46.1801 132.915 46.1801C132.915 46.1801 116.593 74.2548 88.9101 74.2548C61.2271 74.2548 41.5558 48.0886 41.5558 48.0886C41.5558 48.0886 48.5309 43.6373 58.8703 39.8195L36.757 13.4662C36.5909 13.2681 36.6168 12.9727 36.8148 12.8065L50.3605 1.44021C50.5589 1.27397 50.8542 1.29981 51.0203 1.49793L79.0193 34.8658C81.4167 34.5947 83.8592 34.4431 86.3239 34.4431C89.8664 34.4431 93.4045 34.7124 96.8586 35.1694L121.345 0.199728ZM126.821 75.5844C134.209 70.3083 145.387 56.5375 145.387 56.5375C145.387 56.5375 173.941 79.1648 173.941 127.143C173.941 175.121 124.576 203.997 124.576 203.997C124.576 203.997 100.991 180.178 95.2007 149.984C89.411 119.79 103.766 86.263 103.766 86.263C103.766 86.263 119.434 80.8605 126.821 75.5844ZM47.2603 75.5844C39.8728 70.3083 28.6943 56.5375 28.6943 56.5375C28.6943 56.5375 0.140625 79.1648 0.140625 127.143C0.140625 175.121 49.5055 203.997 49.5055 203.997C49.5055 203.997 73.091 180.178 78.8811 149.984C84.6708 119.79 70.3163 86.263 70.3163 86.263C70.3163 86.263 54.6481 80.8605 47.2603 75.5844Z" fill="url(#paint0_linear_9_656)"/>
<defs>
<linearGradient id="paint0_linear_9_656" x1="0.325292" y1="-0.00268552" x2="115.076" y2="232.874" gradientUnits="userSpaceOnUse">
<stop stop-color="white"/>
<stop offset="1" stop-color="white" stop-opacity="0"/>
</linearGradient>
</defs>
</svg>
