<svg width="180" height="204" viewBox="0 0 180 204" fill="none" xmlns="http://www.w3.org/2000/svg">
<path fill-rule="evenodd" clip-rule="evenodd" d="M99.8421 101.554C101.225 100.711 102.398 98.9444 103.344 96.9809C115.793 102.069 124.541 114.092 124.541 128.114C124.541 146.741 109.102 161.841 90.0565 161.841C82.2384 161.841 75.0278 159.296 69.2437 155.008C67.3464 154.109 65.7853 153.246 64.5079 152.54C62.5265 151.445 61.2271 150.726 60.4135 150.839C58.0353 151.166 58.7257 153.355 59.3533 155.342C59.7792 156.693 60.1765 157.951 59.5617 158.469C58.9186 159.013 56.8356 157.027 54.4015 154.706C51.0881 151.547 47.1244 147.768 45.2554 148.903C43.7776 149.801 45.2123 152.235 46.9687 155.216L47.0989 155.437C47.8408 156.697 48.7007 157.98 49.4852 159.15C51.0801 161.529 52.3647 163.447 51.722 163.771C50.9451 164.163 45.5319 160.509 40.9702 155.437C39.2095 153.479 37.5042 151.357 35.9192 149.385V149.385C32.45 145.068 29.5597 141.472 27.9373 141.898C25.9855 142.411 27.462 146.437 29.6314 150.311C30.6459 152.122 31.8392 153.967 32.8723 155.564V155.565C34.4792 158.049 35.6988 159.934 35.2566 160.166C34.6597 160.478 29.4079 155.356 25.8409 148.903C23.7222 145.07 21.9431 140.833 20.5029 137.404C18.941 133.685 17.7775 130.914 17.0114 130.635C14.3496 129.667 14.3496 135.094 15.4171 142.927C15.5564 143.949 15.7638 145.021 16.0191 146.112C26.3722 179.61 58.1759 204 95.804 204C141.83 204 179.142 167.508 179.142 122.492C179.142 79.6477 145.343 44.5242 102.399 41.2359C102.453 39.2176 103.507 35.2151 103.507 35.2151C103.507 35.2151 111.088 16.8727 111.489 12.9532C111.515 12.693 111.547 12.4103 111.58 12.1093C112.053 7.87428 112.931 0 106.157 0C102.539 0 100.857 2.6913 98.9329 5.76934V5.76938C98.1942 6.95102 97.4196 8.18969 96.4865 9.35492C89.7656 17.7478 78.4644 28.2288 72.0563 33.8127C58.5118 45.6147 45.2231 55.3143 37.4727 60.9713L37.4723 60.9717C33.9473 63.5444 31.5682 65.2812 30.8319 65.9988C25.2833 71.408 5.38841 107.294 5.38841 107.294C5.38841 107.294 -1.04536 118.807 1.24147 121.142C3.52831 123.477 9.043 122.942 9.043 122.942C9.043 122.942 83.1289 105.946 89.7617 104.605C91.5475 104.244 92.8081 104.036 93.7759 103.876C96.4036 103.442 96.8754 103.364 99.8421 101.554ZM47.4607 79.713C43.4839 83.493 36.8886 92.5156 36.8886 92.5156C36.8886 92.5156 49.1461 93.2707 55.8968 86.8538C62.648 80.4366 61.1012 69.5007 61.1012 69.5007C61.1012 69.5007 51.4371 75.9331 47.4607 79.713Z" fill="url(#paint0_linear_9_3756)"/>
<defs>
<linearGradient id="paint0_linear_9_3756" x1="0.939424" y1="-0.00268557" x2="113.86" y2="235.211" gradientUnits="userSpaceOnUse">
<stop stop-color="white"/>
<stop offset="1" stop-color="white" stop-opacity="0"/>
</linearGradient>
</defs>
</svg>
