<svg width="154" height="204" viewBox="0 0 154 204" fill="none" xmlns="http://www.w3.org/2000/svg">
<path fill-rule="evenodd" clip-rule="evenodd" d="M115.353 157.54C117.873 148.324 112.981 129.377 112.981 129.377C112.981 129.377 109.432 144.812 103.888 150.517C99.1574 155.383 93.3621 158.758 85.0507 159.645C91.846 156.344 96.5193 149.462 96.5193 141.507C96.5193 130.341 87.3106 121.288 75.9511 121.288C64.5917 121.288 55.3826 130.341 55.3826 141.507C55.3826 144.557 56.0699 147.449 57.2999 150.042C50.195 144.382 49.0777 135.307 49.0777 135.307C49.0777 135.307 41.144 168.246 63.0047 183.74C84.865 199.235 127.689 185.917 127.689 185.917C127.689 185.917 66.4054 229.037 20.9938 182.106C-18.1244 141.678 10.7839 88.4544 10.7839 88.4544C10.7839 88.4544 9.53546 93.3918 9.53546 99.1233C9.53546 104.855 12.643 109.216 12.643 109.216C12.643 109.216 21.9126 89.6768 29.1268 81.7307C35.9544 74.2106 44.5132 68.1113 51.9058 62.8432C57.5963 58.7879 62.5959 55.2251 65.5818 51.8858C82.0281 33.4961 71.9441 0 71.9441 0C71.9441 0 90.4834 16.3439 95.6591 37.4523C97.6321 45.4984 96.3627 54.6533 95.228 62.84C93.3856 76.1303 91.8966 86.8694 105.206 86.1725C126.715 85.0461 108.025 51.8858 108.025 51.8858C108.025 51.8858 156.814 77.5292 153.169 122.378C149.524 167.227 99.8399 177.423 99.8399 177.423C99.8399 177.423 112.832 166.756 115.353 157.54Z" fill="url(#paint0_linear_9_6118)"/>
<defs>
<linearGradient id="paint0_linear_9_6118" x1="0.662178" y1="-0.00268557" x2="124.075" y2="220.28" gradientUnits="userSpaceOnUse">
<stop stop-color="white"/>
<stop offset="1" stop-color="white" stop-opacity="0"/>
</linearGradient>
</defs>
</svg>
