<svg width="183" height="197" viewBox="0 0 183 197" fill="none" xmlns="http://www.w3.org/2000/svg">
<path fill-rule="evenodd" clip-rule="evenodd" d="M29.8164 171.571C29.1162 170.912 28.4237 170.241 27.7392 169.557C-8.3929 133.425 -8.39289 74.8428 27.7392 38.7109C63.8712 2.57858 179.002 0.161377 179.002 0.161377C179.002 0.161377 194.717 133.425 158.585 169.557C126.495 201.647 76.6977 205.237 40.6459 180.327L69.6952 144.678L116.133 134.652L78.2261 130.863L102.316 106.334L129.739 100.327L108.055 93.9052L129.739 54.7882L98.8955 89.3838L86.985 72.5765L91.1777 100.327L69.6952 124.545L59.737 93.9048V134.652L29.8164 171.571Z" fill="url(#paint0_linear_9_976)"/>
<defs>
<linearGradient id="paint0_linear_9_976" x1="0.833264" y1="0.15879" x2="105.744" y2="231.322" gradientUnits="userSpaceOnUse">
<stop stop-color="white"/>
<stop offset="1" stop-color="white" stop-opacity="0"/>
</linearGradient>
</defs>
</svg>
