<svg width="204" height="149" viewBox="0 0 204 149" fill="none" xmlns="http://www.w3.org/2000/svg">
<path fill-rule="evenodd" clip-rule="evenodd" d="M44.9294 148.214C44.8741 148.214 44.8354 148.16 44.8537 148.108L96.9355 0.943773C96.9471 0.911778 96.9774 0.890381 97.0112 0.890381L152.61 0.890381C152.644 0.890381 152.675 0.911938 152.686 0.944131L203.995 148.108C204.013 148.16 203.974 148.214 203.919 148.214H46.4945H44.9294ZM0.0802079 148.79C0.0242697 148.79 -0.0144574 148.734 0.00516404 148.682L38.7889 45.1393C38.8007 45.1078 38.8306 45.0871 38.864 45.0871L72.5627 45.0871C72.6185 45.0871 72.6571 45.1425 72.638 45.1947L35.1352 148.737C35.1237 148.769 35.0936 148.79 35.0598 148.79H0.0802079Z" fill="url(#paint0_linear_9_6488)"/>
<defs>
<linearGradient id="paint0_linear_9_6488" x1="0.216754" y1="0.888434" x2="58.6676" y2="192.93" gradientUnits="userSpaceOnUse">
<stop stop-color="white"/>
<stop offset="1" stop-color="white" stop-opacity="0"/>
</linearGradient>
</defs>
</svg>
