<svg width="190" height="204" viewBox="0 0 190 204" fill="none" xmlns="http://www.w3.org/2000/svg">
<path fill-rule="evenodd" clip-rule="evenodd" d="M174.658 169.409C174.658 169.409 148.935 190.04 97.7464 181.503C58.9107 175.025 38.1975 132.215 38.1975 109.203C38.1975 54.6453 78.5776 42.2296 105.877 42.2296C133.177 42.2296 150.986 68.8453 150.986 89.4525C150.986 110.06 136.411 128.084 113.729 128.084C91.0475 128.084 84.3298 112.161 84.3298 97.5208C84.3298 82.8814 96.1742 77.7236 106.976 77.7236C117.778 77.7236 121.477 86.9459 121.477 94.872C121.477 102.799 115.327 105.637 110.198 105.637C105.068 105.637 104.561 103.049 102.598 100.329C100.634 97.6101 105.102 87.316 97.7464 87.316C90.3913 87.316 89.0203 99.15 89.0203 99.15C89.0203 99.15 91.7017 121.994 113.729 121.6C135.757 121.205 146.206 104.176 143.17 87.316C140.133 70.4557 123.77 52.54 95.053 56.1602C66.336 59.7804 54.6112 88.7962 59.7793 119.804C64.9474 150.813 102.095 168.779 131.302 162.315C160.51 155.851 189.601 134.706 189.601 81.0952C189.601 27.4838 143.17 -4.74148 87.8046 0.569423C32.4397 5.88031 -1.92833 54.2839 0.271527 112.442C2.47138 170.6 57.6564 202.274 104.321 203.907C150.986 205.54 179.593 178.527 179.593 178.527C179.593 178.527 186.027 172.79 183.504 168.31C180.982 163.83 174.658 169.409 174.658 169.409Z" fill="url(#paint0_linear_9_1834)"/>
<defs>
<linearGradient id="paint0_linear_9_1834" x1="0.373117" y1="-0.00268528" x2="108.998" y2="240.286" gradientUnits="userSpaceOnUse">
<stop stop-color="white"/>
<stop offset="1" stop-color="white" stop-opacity="0"/>
</linearGradient>
</defs>
</svg>
