<svg width="134" height="204" viewBox="0 0 134 204" fill="none" xmlns="http://www.w3.org/2000/svg">
<path fill-rule="evenodd" clip-rule="evenodd" d="M133.209 138.065C133.209 174.475 103.582 203.991 67.034 203.991C30.4866 203.991 0.859131 174.475 0.859131 138.065C0.859131 102.653 63.4545 5.39799 66.8874 0.0907681C66.9659 -0.0302567 67.1026 -0.0302557 67.1807 0.0907693C70.6136 5.39799 133.209 102.653 133.209 138.065ZM56.0029 182.855C22.4226 175.508 28.1688 138.31 28.1688 138.31C28.1688 138.31 37.3385 160.765 59.5908 168.039C81.8428 175.312 108.734 164.644 108.734 164.644C108.734 164.644 89.5832 190.203 56.0029 182.855Z" fill="url(#paint0_linear_9_5338)"/>
<defs>
<linearGradient id="paint0_linear_9_5338" x1="0.999756" y1="-0.00268545" x2="133" y2="203.997" gradientUnits="userSpaceOnUse">
<stop stop-color="white"/>
<stop offset="1" stop-color="white" stop-opacity="0"/>
</linearGradient>
</defs>
</svg>
